<svg width="294" height="293" viewBox="0 0 294 293" fill="none" xmlns="http://www.w3.org/2000/svg">
<circle cx="147" cy="146.5" r="146" fill="white" stroke="black"/>
<rect x="41.5696" y="70.6723" width="210.425" height="128.49" rx="6.98313" stroke="black" stroke-width="4.65542"/>
<path d="M29 208.938H264.564V213.594C264.564 216.165 262.48 218.249 259.909 218.249H33.6554C31.0843 218.249 29 216.165 29 213.594V208.938Z" fill="black"/>
<path d="M123.971 208.007H170.525V208.938C170.525 211.509 168.44 213.594 165.869 213.594H128.626C126.055 213.594 123.971 211.509 123.971 208.938V208.007Z" fill="white"/>
<path d="M53.1136 134.911L63.9283 139.282V142.668L49.7966 136.12V133.598L63.9283 127.068V130.454L53.1136 134.911ZM68.1955 136.535C68.1955 133.667 68.875 131.364 70.2341 129.624C71.5931 127.874 73.3725 126.998 75.5723 126.998C77.7606 126.998 79.494 127.747 80.7724 129.244V119.501H83.9685V146.037H81.0315L80.8761 144.033C79.5976 145.599 77.8182 146.382 75.5378 146.382C73.3725 146.382 71.6046 145.495 70.2341 143.722C68.875 141.948 68.1955 139.633 68.1955 136.777V136.535ZM71.3916 136.898C71.3916 139.017 71.8292 140.675 72.7045 141.873C73.5798 143.071 74.7892 143.67 76.3325 143.67C78.3595 143.67 79.8395 142.76 80.7724 140.94V132.354C79.8165 130.592 78.348 129.711 76.367 129.711C74.8007 129.711 73.5798 130.315 72.7045 131.525C71.8292 132.734 71.3916 134.525 71.3916 136.898ZM96.7008 146.382C94.167 146.382 92.1054 145.553 90.516 143.894C88.9267 142.224 88.132 139.996 88.132 137.209V136.621C88.132 134.767 88.4832 133.114 89.1858 131.663C89.8999 130.2 90.8904 129.06 92.1573 128.242C93.4357 127.413 94.8178 126.998 96.3035 126.998C98.7336 126.998 100.622 127.799 101.97 129.4C103.318 131.001 103.991 133.293 103.991 136.276V137.606H91.328C91.3741 139.449 91.9096 140.94 92.9347 142.08C93.9712 143.209 95.2842 143.773 96.8736 143.773C98.0023 143.773 98.9582 143.543 99.7414 143.082C100.525 142.622 101.21 142.011 101.797 141.251L103.749 142.771C102.183 145.179 99.8335 146.382 96.7008 146.382ZM96.3035 129.624C95.0136 129.624 93.9309 130.097 93.0556 131.041C92.1803 131.974 91.639 133.287 91.4317 134.98H100.795V134.738C100.703 133.114 100.265 131.859 99.4823 130.972C98.6991 130.074 97.6395 129.624 96.3035 129.624ZM113.631 141.7L118.261 127.344H121.526L114.823 146.037H112.387L105.615 127.344H108.88L113.631 141.7ZM132.6 136.535C132.6 133.667 133.28 131.364 134.639 129.624C135.998 127.874 137.777 126.998 139.977 126.998C142.165 126.998 143.899 127.747 145.177 129.244V119.501H148.373V146.037H145.436L145.281 144.033C144.002 145.599 142.223 146.382 139.943 146.382C137.777 146.382 136.009 145.495 134.639 143.722C133.28 141.948 132.6 139.633 132.6 136.777V136.535ZM135.796 136.898C135.796 139.017 136.234 140.675 137.109 141.873C137.985 143.071 139.194 143.67 140.737 143.67C142.764 143.67 144.244 142.76 145.177 140.94V132.354C144.221 130.592 142.753 129.711 140.772 129.711C139.205 129.711 137.985 130.315 137.109 131.525C136.234 132.734 135.796 134.525 135.796 136.898ZM164.889 146.037C164.705 145.668 164.555 145.012 164.44 144.067C162.954 145.61 161.18 146.382 159.119 146.382C157.276 146.382 155.762 145.864 154.575 144.827C153.401 143.779 152.813 142.455 152.813 140.854C152.813 138.907 153.55 137.399 155.024 136.327C156.51 135.245 158.595 134.704 161.278 134.704H164.388V133.235C164.388 132.118 164.054 131.231 163.386 130.575C162.718 129.907 161.733 129.573 160.432 129.573C159.292 129.573 158.336 129.861 157.564 130.436C156.792 131.012 156.407 131.709 156.407 132.527H153.193C153.193 131.594 153.521 130.696 154.178 129.832C154.846 128.956 155.744 128.265 156.873 127.759C158.013 127.252 159.263 126.998 160.622 126.998C162.776 126.998 164.463 127.54 165.684 128.622C166.905 129.694 167.538 131.173 167.584 133.062V141.666C167.584 143.382 167.803 144.747 168.241 145.76V146.037H164.889ZM159.585 143.601C160.587 143.601 161.538 143.342 162.436 142.823C163.334 142.305 163.985 141.631 164.388 140.802V136.967H161.883C157.967 136.967 156.009 138.113 156.009 140.405C156.009 141.407 156.343 142.19 157.011 142.754C157.679 143.318 158.537 143.601 159.585 143.601ZM178.433 141.355L182.787 127.344H186.208L178.693 148.922C177.529 152.031 175.681 153.586 173.147 153.586L172.542 153.534L171.35 153.31V150.718L172.214 150.787C173.297 150.787 174.137 150.569 174.736 150.131C175.347 149.693 175.848 148.893 176.239 147.73L176.948 145.829L170.279 127.344H173.769L178.433 141.355ZM188.056 136.535C188.056 133.667 188.736 131.364 190.095 129.624C191.454 127.874 193.233 126.998 195.433 126.998C197.621 126.998 199.355 127.747 200.633 129.244V119.501H203.829V146.037H200.892L200.737 144.033C199.458 145.599 197.679 146.382 195.398 146.382C193.233 146.382 191.465 145.495 190.095 143.722C188.736 141.948 188.056 139.633 188.056 136.777V136.535ZM191.252 136.898C191.252 139.017 191.69 140.675 192.565 141.873C193.44 143.071 194.65 143.67 196.193 143.67C198.22 143.67 199.7 142.76 200.633 140.94V132.354C199.677 130.592 198.209 129.711 196.228 129.711C194.661 129.711 193.44 130.315 192.565 131.525C191.69 132.734 191.252 134.525 191.252 136.898ZM214.92 141.355L219.274 127.344H222.694L215.179 148.922C214.016 152.031 212.168 153.586 209.634 153.586L209.029 153.534L207.837 153.31V150.718L208.701 150.787C209.784 150.787 210.624 150.569 211.223 150.131C211.834 149.693 212.335 148.893 212.726 147.73L213.435 145.829L206.766 127.344H210.256L214.92 141.355ZM236.878 134.807L225.459 130.333V127.05L240.212 133.581V136.103L225.459 142.65V139.334L236.878 134.807Z" fill="black"/>
</svg>
